<svg width="54" height="60" viewBox="0 0 54 60" fill="none" xmlns="http://www.w3.org/2000/svg">
<path d="M53.608 48.1695C54.1816 47.0652 54.0772 46.5918 53.608 46.5918C53.3995 46.5918 53.0344 46.9599 52.6693 47.4331C50.6356 50.0624 47.0378 51.5349 43.4396 51.3243C43.1789 51.3243 43.0746 51.482 42.9704 51.6925C42.5532 52.5339 42.2405 53.2176 41.8232 54.0589C41.6147 54.4797 42.2405 54.5847 43.7525 54.5847C47.4026 54.5847 51.6262 51.9028 53.6077 48.1692L53.608 48.1695ZM21.1185 31.341C21.1185 36.1262 19.137 39.5442 19.137 45.3286C19.137 45.9597 19.3977 45.9071 20.1279 46.17C20.5971 46.3276 21.0666 46.4329 21.7965 46.6432C22.4223 46.8008 22.8915 46.4855 22.683 45.5915C22.0572 42.8046 22.5786 38.6502 23.4129 36.2314C23.9865 35.6003 24.6645 34.8643 25.3422 34.8643C25.9158 34.8643 26.1765 34.9695 26.1765 35.7056C26.1765 36.9151 25.2378 41.0169 25.2378 43.278C25.2378 45.5392 27.2715 47.1168 30.5045 47.1168C31.2866 47.1168 31.808 46.696 30.9218 46.1702C30.0353 45.6444 28.7837 45.3289 28.4711 43.3833C28.2626 42.1738 28.3667 41.0169 28.5233 39.1765C28.6796 37.2309 28.8362 36.2843 28.8362 35.18C28.8362 33.7076 28.1582 32.8136 26.9591 32.8136C25.8641 32.8136 24.5603 33.3395 23.6741 34.0758C23.8826 33.2871 24.1955 30.9733 24.1955 29.8164C24.1955 28.1337 23.2568 26.6087 21.5882 26.6087C20.8583 26.6087 20.2325 26.7663 19.9196 27.2397C19.6589 27.6079 19.8675 27.9758 20.3889 28.6069C20.7539 29.238 21.1188 29.9741 21.1188 31.3412L21.1185 31.341ZM0 42.8046C0 49.5356 5.00576 52.4278 8.13442 52.4278C12.3059 52.4278 16.1647 50.4296 17.9896 45.171C18.3025 44.2244 18.094 43.8564 17.4682 45.0133C16.8424 46.1176 14.3396 49.0098 10.22 49.0098C7.14356 49.0098 4.5363 47.3797 4.5363 42.0685C4.5363 34.0229 9.17722 30.447 12.9317 29.3954C13.1924 29.3427 13.2967 29.2901 13.6096 29.2377C13.8703 29.1851 14.0269 29.0274 14.0788 28.8695C14.2874 28.4487 14.5481 27.7127 14.7046 27.2395C14.861 26.7663 14.7046 26.5034 13.5053 26.5034C6.98748 26.5031 0 32.6557 0 42.8046ZM37.909 22.1911C40.777 22.1911 42.4977 20.1929 42.4977 17.7215C42.4977 15.5653 41.7156 14.4611 39.9427 13.5671L38.3263 12.7258C37.5442 12.305 37.1791 11.8318 37.1791 10.8328C37.1791 9.46562 37.9612 8.41375 38.7435 8.41375C39.5259 8.41375 39.9951 8.88693 39.7344 9.9388C39.5781 10.5172 39.5259 10.7802 39.5259 11.201C39.5259 12.2526 40.1517 12.831 40.9338 12.831C41.7159 12.831 42.4982 12.3578 42.4982 11.1483C42.4982 8.57164 41.0382 6.46814 38.9004 6.46814C36.2409 6.46814 33.5295 8.67665 33.5295 12.1473C33.5295 13.8826 34.416 14.724 35.8761 15.5127L38.7962 17.0378C39.7349 17.511 40.0478 17.9318 40.0478 18.8257C40.0478 19.7723 39.422 20.4034 38.5877 20.4034C37.3883 20.4034 36.3455 19.825 35.5112 18.1423C34.7813 16.7225 34.7291 16.5646 34.5726 16.5646C34.416 16.5646 34.3119 16.7222 34.3119 17.0378C34.3119 17.8265 33.999 18.6678 33.582 19.3515C33.4256 19.6145 33.3735 19.9826 33.582 20.1929C34.677 21.2971 36.0327 22.1911 37.91 22.1911H37.909ZM30.5567 32.3928C31.5476 31.3412 34.4153 30.1317 36.0319 30.1317C39.5257 30.1317 42.6543 31.8144 45.3657 31.8144C48.5466 31.8144 51.3623 30.0264 51.3623 26.8187C51.3623 24.3473 49.8501 22.7696 47.1909 22.7696C44.0622 22.7696 42.6021 25.0307 42.2892 27.1342C42.1849 27.8703 42.2892 28.1335 42.5499 28.2385C43.0713 28.4487 43.8015 28.7117 44.8443 28.8169C45.0528 28.8169 45.105 28.8169 45.105 28.6066L45.2613 27.3445C45.4176 25.9247 45.9912 24.6625 47.6601 24.6625C49.068 24.6625 49.8501 25.4513 49.8501 27.029C49.8501 28.6066 48.4944 29.7633 46.7736 29.7633C43.3842 29.7633 41.5069 27.8703 38.0134 27.8703C32.486 27.8703 30.4523 30.9728 30.0353 31.8141C29.5661 32.8134 29.9309 33.0237 30.5567 32.3926V32.3928ZM27.5324 22.6646C30.4526 22.6646 33.8419 19.5094 33.8419 16.8801C33.8419 15.9861 33.4768 15.513 32.8511 15.513C32.2775 15.513 31.7039 15.8811 31.4954 17.1957C31.1303 19.6147 29.7746 20.5084 28.3667 20.5084C26.3852 20.5084 24.7688 19.1413 24.7688 15.9861C24.7688 13.0413 26.4374 10.3596 28.7318 10.3596C29.4098 10.3596 29.7226 10.6751 29.7226 11.2536C29.7226 12.0949 28.2104 13.7776 27.2198 14.619L25.6553 15.9861C25.2902 16.2491 25.3946 16.7749 25.4468 17.143C25.499 17.4059 25.7075 18.037 26.0204 18.037C26.5418 18.037 27.7412 16.9328 28.2626 16.512C28.784 16.0912 32.0692 13.5145 32.0692 11.2007C32.0692 9.14984 30.5569 8.30849 28.4713 8.30849C24.8735 8.30849 21.7448 11.8318 21.7448 16.7222C21.7448 20.5611 24.6649 22.6643 27.5329 22.6643L27.5324 22.6646ZM40.5163 40.1229C41.0899 39.9126 48.1293 37.4936 49.6415 36.5996C50.2673 36.2314 50.5802 35.4953 50.5802 34.4435C50.5802 33.8124 50.3195 33.7598 48.7551 34.3908C47.9208 34.7064 42.8106 36.7572 39.8383 37.9141C39.1603 38.2297 38.8474 38.5452 38.8474 39.2813C38.8474 40.2805 39.9424 40.3329 40.516 40.1226L40.5163 40.1229ZM19.6063 21.2971C20.0235 21.4548 20.0235 21.0869 20.0235 20.824C20.0235 19.8247 20.0235 19.2463 20.232 17.6162C20.7013 13.9879 23.1522 8.72929 24.1428 6.88869C24.7164 5.83707 24.5079 5.4689 24.0906 5.15336C23.1519 4.46966 22.5784 3.99647 21.5877 3.47066C21.1705 3.26039 20.8578 3.68094 20.5969 4.20675C19.9189 5.57391 15.5911 14.9343 15.1217 15.8806C14.6524 16.8272 14.4959 17.1952 14.183 17.1952C14.0267 17.1952 13.9223 17.1952 13.8701 16.6694C13.6616 14.6185 15.2258 4.41702 15.2258 3.36515C15.2263 1.20952 13.9225 0 10.5332 0C7.50888 0 5.94443 1.78796 5.94443 4.31201C5.94443 6.04734 6.93529 7.30949 8.39512 7.30949C9.0209 7.30949 9.49011 6.94132 9.49011 6.41551C9.49011 5.41627 8.44731 5.62679 8.44731 3.57592C8.44731 1.52506 9.22941 0.893981 10.1681 0.893981C11.2109 0.893981 11.9411 1.94561 11.7325 3.62831C11.3675 6.57315 10.2725 12.936 10.1681 16.1438C10.1159 17.6162 10.2725 17.9318 11.0546 18.2473L12.8797 18.9834C14.0791 19.4566 14.6005 19.141 15.1219 18.3523C16.3735 16.4593 18.3028 12.1473 19.2934 10.412C18.094 13.5145 16.8946 17.5636 16.8946 19.7197C16.8946 20.1405 16.999 20.3508 17.4682 20.5084L19.6063 21.2971ZM4.37998 29.7635C4.74506 29.3954 5.52716 28.7643 5.99637 28.449C6.25707 28.2914 6.30926 28.0282 6.15269 27.8706C5.8398 27.5024 5.68348 26.9239 5.68348 26.3981C5.68348 23.5585 7.97785 22.349 11.1065 22.349C17.416 22.349 20.0233 27.1342 31.7036 27.1342C42.706 27.1342 44.2705 21.6653 44.479 20.5084C44.6875 19.2989 44.6875 17.7741 44.2705 16.7222C43.9576 15.8809 43.384 16.1964 43.4884 16.7222C43.5927 17.3533 43.6969 18.6152 43.4362 19.6671C43.0711 21.1921 41.9239 23.9791 31.5473 23.9791C21.1707 23.9791 16.3732 19.7197 10.6895 19.7197C6.30926 19.7197 3.12841 22.454 3.12841 26.6084C3.12841 28.0282 3.49349 28.9222 3.85833 29.5533C4.01465 29.8162 4.17122 29.9741 4.37973 29.7635H4.37998ZM34.7801 46.2755C38.2738 46.2755 40.0988 43.4885 40.0988 42.5419C40.0988 41.8058 39.7859 41.385 39.1601 41.385C38.6387 41.385 38.3258 41.6479 37.9607 42.279C37.5956 42.8575 37.022 44.3299 35.6141 44.3299C33.789 44.3299 32.3811 42.6472 32.3811 39.8076C32.3811 36.968 34.0497 34.181 36.3441 34.181C37.022 34.181 37.3349 34.4966 37.3349 35.075C37.3349 35.9164 35.8227 37.5991 34.832 38.4404L33.2676 39.8076C32.9025 40.0705 33.0069 40.5963 33.0591 40.9645C33.1113 41.2274 33.3198 41.8585 33.6327 41.8585C34.1541 41.8585 35.3534 40.7542 35.8748 40.3334C36.3963 39.9126 39.6815 37.3359 39.6815 35.0222C39.6815 32.9713 38.1692 32.1299 36.0836 32.1299C32.4857 32.1299 29.3571 35.4953 29.3571 40.2808C29.3571 44.172 32.0685 46.2755 34.7801 46.2755ZM29.3049 60.0002C41.8195 60.0002 44.6353 47.9056 44.896 33.1289C44.896 32.4452 44.7916 32.2876 44.3746 32.2349L42.706 32.0247C42.3409 31.972 41.9761 32.2349 41.9761 32.9187C40.7245 48.0108 39.1603 57.7917 29.3049 57.7917C26.5413 57.7917 23.6212 56.7401 23.6212 54.2158C23.6212 52.0597 25.6548 51.3236 28.2099 51.3236C31.3907 51.3236 33.32 51.9547 35.771 53.0063C36.0839 53.2166 36.4489 52.901 36.6574 52.6381C37.0747 52.0597 37.3874 51.3236 37.7002 50.6925C37.8566 50.377 38.0131 49.9038 37.4395 49.6409C35.5103 48.9572 32.6945 48.484 29.0964 48.484C24.1426 48.484 21.4834 50.6925 21.4834 54.2684C21.4834 57.2659 24.5598 60.0002 29.3051 60.0002H29.3049ZM11.524 34.3908C17.2599 34.3908 19.0329 27.134 19.1892 26.1876C19.2414 25.8721 19.1892 25.5039 18.8763 25.3463C18.4591 25.136 17.4685 24.7152 16.7905 24.5575C16.2691 24.4523 16.1125 24.5575 16.0084 25.1886C14.9656 31.5515 12.0976 32.0247 11.0546 32.0247C10.2203 32.0247 10.1681 32.0247 9.43817 31.9194C9.12528 31.8668 9.0209 31.9194 8.7602 32.1823C8.4995 32.4452 8.18661 32.7081 7.92591 33.1289C7.7174 33.4971 7.92591 33.8126 8.39512 33.9703C9.2816 34.2858 10.2722 34.3911 11.5238 34.3911L11.524 34.3908ZM16.0606 40.7011C18.3028 40.7011 20.0235 37.283 20.0235 33.6545C20.0235 32.2347 19.6584 30.552 19.2414 29.5001C19.137 29.2372 18.9807 29.132 18.8242 29.3949C18.5113 29.9207 18.3549 30.2362 18.1462 30.5517C18.0418 30.7094 18.0418 30.8673 18.1462 31.0249C18.3547 31.3405 18.4591 31.656 18.4591 32.0242C18.4591 32.8655 18.2506 33.444 17.8855 34.075C17.5204 34.6535 16.6861 35.7051 15.2782 37.2302C14.7568 37.756 14.3396 38.3344 14.3396 39.1231C14.3396 40.0698 15.0175 40.7008 16.0603 40.7008L16.0606 40.7011Z" fill="#F54746"/>
</svg>
